PathFileType	4	(X/Y/Z)	C:/Users/beibeiliu/ov580/test_trc\sequence.22_training_dense_left.trc
DataRate	CameraRate	NumFrames	NumMarkers	Units	OrigDataRate	OrigDataStartFrame	OrigNumFrames
120	120	22	19	mm	120	41	324
Frame#	Time	ThumbCMC			ThumbMCP			ThumbIP			ThumbTip			IndexMCP			IndexPIP			IndexTip			MiddleMCP			MiddlePIP			MiddleTip			RingMCP			RingPIP			RingTip			PinkyMCP			PinkyPIP			PinkyTip			BackHand1			BackHand2			BackHand3	
		X0	Y0	Z0	X1	Y1	Z1	X2	Y2	Z2	X3	Y3	Z3	X4	Y4	Z4	X5	Y5	Z5	X6	Y6	Z6	X7	Y7	Z7	X8	Y8	Z8	X9	Y9	Z9	X10	Y10	Z10	X11	Y11	Z11	X12	Y12	Z12	X13	Y13	Z13	X14	Y14	Z14	X15	Y15	Z15	X16	Y16	Z16	X17	Y17	Z17	X18	Y18	Z18	
40	0.333333	-199.709	45.6752	33.6097	-178.231	37.0193	14.7009	-162.347	35.73	-2.72598	-148.828	30.3605	-19.9832	-203.762	57.4662	-33.0454	-184.092	52.6306	-46.5552	-165.887	37.1178	-53.4403	-210.932	37.9951	-39.5667	-186.606	23.6979	-41.5146	-186.615	20.5582	-9.19954	-219.673	21.0349	-37.8259	-193.962	11.8212	-38.0083	-192.636	9.40728	-7.20501	-231.6	9.49917	-29.8809	-209.484	1.15597	-39.1407	-193.972	3.51888	-17.2499	-247.465	24.5088	3.30121	-250.908	22.1389	31.558	-237.076	46.0657	24.1971	
41	0.341667	-201.054	47.0247	34.1523	-179.901	36.631	17.89	-160.747	36.2799	-4.27291	-152.244	30.1687	-22.0982	-204.336	59.5882	-29.4371	-187.045	55.0092	-46.3215	-167.779	38.8347	-53.6843	-210.955	38.2914	-40.7738	-185.661	24.4841	-41.4472	-189.723	16.4203	-9.63123	-221.367	20.8689	-38.1207	-194.349	14.4998	-38.2992	-191.218	11.2884	-10.1682	-232.924	6.42011	-32.7624	-208.916	2.72321	-39.7006	-193.858	0.632467	-15.9886	-246.389	25.9064	5.28632	-248.977	24.1424	31.7259	-235.449	47.2283	25.9347	
42	0.35	-201.686	44.8258	31.0801	-176.301	39.4138	16.7335	-165.429	34.1673	-6.39283	-154.682	28.989	-20.9669	-203.561	62.333	-28.6632	-183.597	53.5263	-47.7309	-162.303	37.893	-53.9303	-209.67	38.9717	-41.2107	-186.768	22.8611	-41.5421	-188.004	21.2181	-7.3601	-221.104	21.5992	-37.5534	-195.343	9.52224	-37.9336	-191.719	9.997	-10.5255	-233.164	7.47595	-32.3607	-209.406	4.43048	-40.5665	-193.862	3.67254	-19.679	-246.619	26.8408	7.92348	-249.695	22.8453	32.5857	-235.564	46.4603	25.5275	
43	0.358333	-199.501	45.0827	32.939	-178.826	36.2366	13.7368	-164.766	33.4765	-2.83944	-152.324	27.3405	-24.6733	-203.317	58.4825	-31.9768	-184.07	56.27	-46.8706	-165.764	39.9627	-55.3072	-212.094	39.3686	-38.6022	-183.888	24.8731	-40.911	-187.7	18.5561	-11.2108	-218.538	24.6674	-40.1286	-196.679	13.0013	-41.0132	-193.501	6.78729	-11.2163	-231.518	13.3092	-33.7119	-210.895	5.48097	-41.7174	-194.758	3.32673	-23.3052	-244.975	31.1725	5.15762	-251.646	22.974	31.4717	-232.855	48.9988	26.6166	
44	0.366667	-200.227	41.5778	33.5713	-174.133	33.9579	13.5899	-160.371	32.0177	-9.06957	-155.632	25.1346	-26.2475	-198.536	61.0458	-28.7932	-183.029	54.6201	-47.4735	-163.841	35.3226	-56.9282	-209.111	44.1969	-36.9772	-187.521	25.191	-45.0687	-186.332	18.3342	-11.622	-218.764	26.1609	-41.5012	-197.755	13.5609	-42.3164	-195.301	6.98023	-12.2843	-234.149	15.96	-30.548	-210.603	5.76995	-41.3628	-195.969	5.48789	-19.2285	-243.679	33.4325	6.97683	-246.777	30.7368	31.8792	-229.168	53.6773	23.9211	
45	0.375	-194.678	41.162	31.7186	-173.26	30.8403	9.43579	-164.329	26.1103	-7.87058	-154.679	21.7788	-24.3484	-193.452	62.725	-28.8911	-176.66	53.6661	-47.6886	-161.68	35.4726	-57.1547	-204.752	45.615	-39.6237	-187.211	21.8975	-42.384	-186.828	16.6212	-12.7762	-217.211	33.999	-38.7597	-198.364	16.8151	-42.5648	-196.694	9.27955	-11.4989	-233.078	20.4188	-35.459	-214.246	8.07896	-42.8105	-198.238	4.35394	-24.1699	-244.408	36.1734	6.92791	-246.276	35.4201	34.4311	-225.459	53.7409	26.5492	
46	0.383333	-190.353	41.9871	30.2098	-170.527	28.2846	10.7666	-163.098	24.4242	-9.36385	-158.496	18.7369	-31.3742	-189.925	64.4534	-26.7599	-177.68	55.7295	-47.0041	-165.16	34.2525	-59.2544	-201.64	49.8661	-38.567	-184.159	24.0606	-42.207	-187.878	16.7018	-13.331	-221.21	34.732	-38.898	-198.015	18.8587	-42.5969	-197.675	7.78379	-15.7046	-233.946	26.5001	-35.5952	-217.295	16.9332	-44.7011	-202.614	6.965	-26.1623	-238.918	44.693	7.52786	-244.284	37.559	34.659	-220.051	56.4277	27.592	
47	0.391667	-186.898	38.5729	31.8257	-175.06	25.1842	7.68198	-159.881	21.8891	-13.138	-154.23	15.8996	-30.6783	-184.629	64.5209	-28.5854	-173.049	56.0019	-44.8301	-160.577	35.7935	-59.5304	-202.323	52.1166	-35.6127	-188.1	25.6515	-45.4823	-186.811	16.8669	-13.8055	-217.099	38.843	-40.5908	-199.5	21.4037	-42.5807	-198.658	9.60655	-15.1313	-233.393	33.5043	-30.7604	-217.556	19.2091	-43.6358	-203.814	8.7102	-24.1149	-236.713	45.8538	11.2184	-239.739	44.9036	33.9744	-216.141	59.159	29.352	
48	0.4	-185.973	35.1434	33.1027	-174.623	21.4049	6.90395	-159.887	17.5861	-14.4135	-159.508	13.762	-35.573	-180.467	64.0133	-27.21	-171.489	53.1791	-48.6959	-162.226	33.3404	-62.2264	-199.717	52.3317	-36.6097	-184.048	26.5374	-45.3933	-185.739	17.1669	-14.238	-213.464	44.1734	-36.092	-202.16	18.993	-43.5112	-198.305	14.5145	-14.0612	-232.834	37.3188	-35.0397	-215.336	21.948	-44.0888	-205.054	10.6452	-28.1751	-234.709	50.8082	10.9855	-236.744	46.6874	32.2256	-214.565	57.7923	29.3024	
49	0.408333	-179.723	31.147	27.5848	-173.688	17.7127	4.31638	-163.25	13.0224	-16.8009	-158.045	8.35103	-38.6385	-174.362	60.1073	-30.8236	-165.115	47.5656	-51.5599	-159.461	28.5146	-63.7488	-193.262	51.9797	-39.4838	-186.646	24.7249	-48.2411	-192.403	13.6981	-15.9628	-211.877	45.338	-40.4939	-200.12	19.9095	-43.8485	-202.499	10.9444	-17.6805	-228.662	43.1817	-29.4954	-215.612	27.4473	-45.4122	-207.328	7.8289	-27.3341	-227.486	56.5861	8.00265	-229.419	48.6504	33.5563	-205.511	57.8346	27.4115	
50	0.416667	-180.344	25.6456	29.3098	-171.441	12.6857	0.884491	-164.817	7.22414	-19.0969	-157.553	0.873789	-40.0405	-169.468	55.3479	-27.9753	-165.85	43.7543	-55.376	-159.252	24.2146	-66.6331	-190.972	48.8125	-40.8855	-187.262	20.9957	-50.7661	-193.203	10.0855	-21.874	-208.619	45.6632	-40.2022	-203.174	16.931	-45.5777	-204.079	11.9476	-16.7033	-226.617	43.0672	-36.4303	-218.982	24.8403	-48.4178	-207.538	10.0395	-30.0876	-223.25	56.507	8.4051	-228.558	51.968	30.8814	-201.046	56.9288	25.1125	
51	0.425	-179.05	21.5751	27.2046	-169.586	5.44099	0.975124	-166.75	1.91585	-21.5467	-160.753	-4.04561	-45.3233	-168.202	50.765	-33.5218	-162.956	37.8296	-56.2353	-162.442	14.8771	-70.6725	-188.027	45.3831	-42.3996	-184.005	19.253	-53.853	-194.119	8.52171	-19.0144	-204.208	42.6752	-42.5764	-199.903	15.6097	-46.2553	-205.712	9.0442	-20.9901	-227.885	43.004	-36.3034	-215.776	21.247	-47.4568	-208.241	11.5711	-26.8051	-217.768	55.7893	5.097	-226.821	50.3557	29.2931	-194.86	55.3185	23.1731	
52	0.433333	-180.741	21.6164	22.9001	-173.426	4.03367	0.978994	-163.664	-2.60634	-27.2123	-163.582	-8.80773	-45.5968	-168.714	46.0287	-34.9585	-163.728	32.5614	-57.401	-164.767	8.44032	-70.7172	-187.661	40.269	-48.1876	-184.79	13.812	-54.8344	-189.674	3.66796	-22.6853	-208.367	39.6652	-43.3653	-200.886	13.1085	-47.7502	-205.63	7.31621	-19.9634	-225.624	40.4268	-38.55	-215.593	18.4262	-47.3376	-211.306	5.30588	-23.6927	-215.145	53.438	2.07143	-225.69	50.9302	30.2162	-191.983	53.1485	19.4924	
53	0.441667	-178.496	16.1025	24.8205	-170.864	-0.424188	-4.02757	-165.167	-8.79267	-26.4413	-167.02	-14.033	-44.0327	-165.833	40.072	-35.4001	-161.218	24.0785	-58.2078	-161.712	3.496	-69.0023	-181.808	34.8869	-47.4464	-186.234	6.17204	-53.395	-193.22	-0.751565	-23.1421	-200.729	35.6487	-45.2704	-202.37	10.55	-49.3693	-202.517	2.45956	-23.4518	-220.473	39.5493	-38.2201	-213.12	17.44	-48.5021	-209.284	3.81169	-27.441	-216.266	53.8685	4.42255	-220.215	50.6104	27.7347	-187.94	50.0683	18.4398	
54	0.45	-176.221	13.55	20.5034	-173.313	-4.42088	-1.55284	-167.735	-13.5088	-25.1558	-170.454	-18.8844	-43.9327	-163.761	33.2996	-37.448	-160.628	15.1323	-61.2913	-163.485	-4.22489	-69.8565	-185.074	31.4981	-47.8943	-186.944	1.08177	-52.5203	-193.213	-5.92933	-22.3307	-203.928	32.7849	-45.5957	-205.208	4.5232	-48.6975	-203.995	-0.264306	-23.3003	-218.667	36.0616	-41.4814	-214.159	14.2117	-49.0458	-210.177	3.11272	-26.8127	-211.398	52.4123	1.16468	-219.029	47.8832	26.9616	-186.06	44.5707	18.1353	
55	0.458333	-178.52	9.92818	21.4882	-173.349	-10.3759	-3.60703	-172.961	-16.7388	-24.5069	-171.956	-26.8065	-46.2127	-162.919	27.0499	-36.533	-161.603	8.8784	-59.1643	-166.528	-13.3575	-69.7805	-180.618	24.7993	-47.2652	-186.583	-5.38418	-53.1759	-197.856	-11.3724	-25.5192	-198.458	29.2193	-43.9959	-204.506	-1.4499	-47.4041	-205.644	-5.06236	-22.3599	-218.159	34.3656	-41.2267	-213.452	12.4792	-49.8463	-213.835	-1.70145	-23.7141	-204.812	48.0882	1.26041	-210.173	47.7957	24.9935	-183.864	43.282	19.9349	
56	0.466667	-175.791	6.35535	20.4808	-173.665	-15.4332	-1.93975	-172.09	-24.6414	-23.8553	-175.367	-32.6524	-42.7691	-159.26	17.9193	-38.8674	-159.463	-0.453974	-57.495	-165.629	-21.8868	-66.3939	-179.984	17.0469	-49.414	-190.826	-11.2584	-51.0233	-199.872	-13.6875	-20.4702	-198.542	23.2419	-44.4927	-205.653	-6.18361	-45.677	-204.706	-8.3218	-18.4614	-215.093	30.4169	-38.2756	-214.304	7.76314	-49.1577	-214.324	-6.20675	-24.0034	-203.956	48.0933	-5.28169	-210.473	49.3562	25.1801	-179.276	37.8618	14.7377	
57	0.475	-178.149	5.76399	23.8407	-176.608	-15.6238	1.55678	-176.842	-25.3952	-23.1406	-179.294	-34.4534	-40.317	-160.303	9.92902	-41.1635	-164.296	-7.84683	-58.1883	-170.864	-32.1486	-63.2643	-182.092	11.7461	-49.8134	-190.601	-14.8948	-52.5129	-198.957	-17.9331	-17.5814	-198.477	14.2373	-48.7153	-203.283	-12.1019	-45.7299	-205.593	-14.7805	-20.5842	-217.363	24.1503	-40.8345	-218.24	-2.24346	-46.4371	-214.936	-13.6059	-23.8558	-205.202	43.1164	-4.66619	-205.41	46.5671	22.1874	-180.998	38.0827	14.5732	
58	0.483333	-174.723	3.00793	24.7994	-177.171	-18.4518	2.31826	-175.49	-30.9295	-16.1358	-177.956	-42.0113	-37.5165	-162.645	7.49396	-39.7077	-165.644	-12.9185	-56.1547	-175.538	-41.2737	-59.2611	-184.245	7.56146	-47.5938	-192.635	-23.4651	-45.7632	-197.74	-23.1609	-14.4604	-201.342	11.4437	-46.4984	-206.108	-17.1892	-43.0634	-205.997	-19.267	-18.3975	-219.617	18.2921	-41.8656	-217.138	-6.0101	-46.0668	-213.397	-16.4217	-20.0159	-201.084	39.3565	-7.79035	-208.778	45.0505	20.5662	-181.536	37.1721	10.6351	
59	0.491667	-174.768	2.28058	26.1422	-176.906	-21.3098	4.92423	-175.354	-35.0805	-13.0071	-178.283	-46.8756	-32.6047	-161.962	-0.532986	-42.1673	-164.588	-24.5722	-53.3326	-175.586	-43.8046	-52.8316	-185.856	-0.37876	-49.3575	-190.981	-27.8895	-45.9985	-200.208	-26.2202	-14.0726	-202.821	2.84108	-47.8548	-204.202	-23.2254	-38.7083	-206.985	-19.8381	-10.3869	-220.666	12.9017	-39.2051	-219.001	-14.8336	-40.7618	-213.358	-18.3737	-19.8207	-208.314	38.5254	-6.44025	-210.943	44.9667	17.4031	-179.168	34.7983	10.3402	
60	0.5	-173.798	3.40843	26.7438	-174.95	-21.5439	8.82027	-171.361	-40.5989	-10.8472	-173.925	-51.3807	-25.2502	-165.114	-0.799973	-37.5937	-167.776	-25.8128	-50.9741	-178.751	-53.5147	-45.3189	-182.476	-5.98436	-46.2136	-191.168	-32.6044	-42.54	-194.234	-30.306	-6.91186	-203.639	-2.57779	-45.9114	-207.132	-28.6236	-36.0266	-204.539	-24.3566	-10.3089	-219.669	5.51009	-39.2128	-220.156	-19.4368	-39.9502	-214.018	-26.0555	-15.7578	-205.731	33.0209	-11.0264	-210.731	41.8957	18.0157	-186.101	33.1775	7.59836	
61	0.508333	-172.958	2.2397	26.7967	-172.081	-25.3537	13.9416	-168.694	-43.5471	-0.326343	-167.875	-60.5722	-16.4797	-166.571	-5.42779	-37.1043	-167.786	-32.8636	-47.5638	-173.068	-58.4038	-38.4951	-183.499	-13.3423	-44.4886	-192.039	-39.142	-34.7074	-194.745	-31.7255	-3.80045	-206.299	-8.11159	-43.1636	-204.586	-33.9141	-32.0307	-207.394	-24.9527	-4.73336	-223.311	-1.90442	-40.4988	-218.24	-26.5004	-35.9246	-210.627	-26.059	-12.537	-208.254	28.6996	-12.4806	-211.566	38.1844	13.3486	-181.559	32.7634	9.55764	
